<?xml version="1.0" encoding="utf-8" standalone="no"?>
<!DOCTYPE svg PUBLIC "-//W3C//DTD SVG 1.1//EN"
  "http://www.w3.org/Graphics/SVG/1.1/DTD/svg11.dtd">
<svg xmlns:xlink="http://www.w3.org/1999/xlink" width="460.8pt" height="345.6pt" viewBox="0 0 460.8 345.6" xmlns="http://www.w3.org/2000/svg" version="1.1">
 <metadata>
  <rdf:RDF xmlns:dc="http://purl.org/dc/elements/1.1/" xmlns:cc="http://creativecommons.org/ns#" xmlns:rdf="http://www.w3.org/1999/02/22-rdf-syntax-ns#">
   <cc:Work>
    <dc:type rdf:resource="http://purl.org/dc/dcmitype/StillImage"/>
    <dc:date>2024-07-22T10:20:12.865835</dc:date>
    <dc:format>image/svg+xml</dc:format>
    <dc:creator>
     <cc:Agent>
      <dc:title>Matplotlib v3.9.1, https://matplotlib.org/</dc:title>
     </cc:Agent>
    </dc:creator>
   </cc:Work>
  </rdf:RDF>
 </metadata>
 <defs>
  <style type="text/css">*{stroke-linejoin: round; stroke-linecap: butt}</style>
 </defs>
 <g id="figure_1">
  <g id="patch_1">
   <path d="M 0 345.6 
L 460.8 345.6 
L 460.8 0 
L 0 0 
z
" style="fill: #ffffff"/>
  </g>
  <g id="axes_1">
   <g id="patch_2">
    <path d="M 369.216 280.9728 
L 236.16 50.513048 
L 103.104 280.9728 
z
" clip-path="url(#p46e477bcbd)" style="fill: #ffffff; opacity: 0.75; stroke: #ffffff; stroke-linejoin: miter"/>
   </g>
   <g id="line2d_1">
    <path d="M 103.104 280.9728 
L 369.216 280.9728 
" clip-path="url(#p46e477bcbd)" style="fill: none; stroke: #000000; stroke-linecap: square"/>
   </g>
   <g id="line2d_2">
    <path d="M 236.16 50.513048 
L 103.104 280.9728 
" clip-path="url(#p46e477bcbd)" style="fill: none; stroke: #000000; stroke-linecap: square"/>
   </g>
   <g id="line2d_3">
    <path d="M 236.16 50.513048 
L 369.216 280.9728 
" clip-path="url(#p46e477bcbd)" style="fill: none; stroke: #000000; stroke-linecap: square"/>
   </g>
   <g id="line2d_4">
    <path d="M 103.104 280.9728 
L 369.216 280.9728 
" clip-path="url(#p46e477bcbd)" style="fill: none; stroke-dasharray: 0.5,0.825; stroke-dashoffset: 0; stroke: #808080; stroke-width: 0.5"/>
   </g>
   <g id="line2d_5">
    <path d="M 116.4096 257.926825 
L 355.9104 257.926825 
" clip-path="url(#p46e477bcbd)" style="fill: none; stroke-dasharray: 0.5,0.825; stroke-dashoffset: 0; stroke: #808080; stroke-width: 0.5"/>
   </g>
   <g id="line2d_6">
    <path d="M 129.7152 234.88085 
L 342.6048 234.88085 
" clip-path="url(#p46e477bcbd)" style="fill: none; stroke-dasharray: 0.5,0.825; stroke-dashoffset: 0; stroke: #808080; stroke-width: 0.5"/>
   </g>
   <g id="line2d_7">
    <path d="M 143.0208 211.834874 
L 329.2992 211.834874 
" clip-path="url(#p46e477bcbd)" style="fill: none; stroke-dasharray: 0.5,0.825; stroke-dashoffset: 0; stroke: #808080; stroke-width: 0.5"/>
   </g>
   <g id="line2d_8">
    <path d="M 156.3264 188.788899 
L 315.9936 188.788899 
" clip-path="url(#p46e477bcbd)" style="fill: none; stroke-dasharray: 0.5,0.825; stroke-dashoffset: 0; stroke: #808080; stroke-width: 0.5"/>
   </g>
   <g id="line2d_9">
    <path d="M 169.632 165.742924 
L 302.688 165.742924 
" clip-path="url(#p46e477bcbd)" style="fill: none; stroke-dasharray: 0.5,0.825; stroke-dashoffset: 0; stroke: #808080; stroke-width: 0.5"/>
   </g>
   <g id="line2d_10">
    <path d="M 182.9376 142.696949 
L 289.3824 142.696949 
" clip-path="url(#p46e477bcbd)" style="fill: none; stroke-dasharray: 0.5,0.825; stroke-dashoffset: 0; stroke: #808080; stroke-width: 0.5"/>
   </g>
   <g id="line2d_11">
    <path d="M 196.2432 119.650973 
L 276.0768 119.650973 
" clip-path="url(#p46e477bcbd)" style="fill: none; stroke-dasharray: 0.5,0.825; stroke-dashoffset: 0; stroke: #808080; stroke-width: 0.5"/>
   </g>
   <g id="line2d_12">
    <path d="M 209.5488 96.604998 
L 262.7712 96.604998 
" clip-path="url(#p46e477bcbd)" style="fill: none; stroke-dasharray: 0.5,0.825; stroke-dashoffset: 0; stroke: #808080; stroke-width: 0.5"/>
   </g>
   <g id="line2d_13">
    <path d="M 222.8544 73.559023 
L 249.4656 73.559023 
" clip-path="url(#p46e477bcbd)" style="fill: none; stroke-dasharray: 0.5,0.825; stroke-dashoffset: 0; stroke: #808080; stroke-width: 0.5"/>
   </g>
   <g id="line2d_14">
    <path d="M 236.16 50.513048 
L 103.104 280.9728 
" clip-path="url(#p46e477bcbd)" style="fill: none; stroke-dasharray: 0.5,0.825; stroke-dashoffset: 0; stroke: #808080; stroke-width: 0.5"/>
   </g>
   <g id="line2d_15">
    <path d="M 236.16 50.513048 
L 369.216 280.9728 
" clip-path="url(#p46e477bcbd)" style="fill: none; stroke-dasharray: 0.5,0.825; stroke-dashoffset: 0; stroke: #808080; stroke-width: 0.5"/>
   </g>
   <g id="line2d_16">
    <path d="M 249.4656 73.559023 
L 129.7152 280.9728 
" clip-path="url(#p46e477bcbd)" style="fill: none; stroke-dasharray: 0.5,0.825; stroke-dashoffset: 0; stroke: #808080; stroke-width: 0.5"/>
   </g>
   <g id="line2d_17">
    <path d="M 222.8544 73.559023 
L 342.6048 280.9728 
" clip-path="url(#p46e477bcbd)" style="fill: none; stroke-dasharray: 0.5,0.825; stroke-dashoffset: 0; stroke: #808080; stroke-width: 0.5"/>
   </g>
   <g id="line2d_18">
    <path d="M 262.7712 96.604998 
L 156.3264 280.9728 
" clip-path="url(#p46e477bcbd)" style="fill: none; stroke-dasharray: 0.5,0.825; stroke-dashoffset: 0; stroke: #808080; stroke-width: 0.5"/>
   </g>
   <g id="line2d_19">
    <path d="M 209.5488 96.604998 
L 315.9936 280.9728 
" clip-path="url(#p46e477bcbd)" style="fill: none; stroke-dasharray: 0.5,0.825; stroke-dashoffset: 0; stroke: #808080; stroke-width: 0.5"/>
   </g>
   <g id="line2d_20">
    <path d="M 276.0768 119.650973 
L 182.9376 280.9728 
" clip-path="url(#p46e477bcbd)" style="fill: none; stroke-dasharray: 0.5,0.825; stroke-dashoffset: 0; stroke: #808080; stroke-width: 0.5"/>
   </g>
   <g id="line2d_21">
    <path d="M 196.2432 119.650973 
L 289.3824 280.9728 
" clip-path="url(#p46e477bcbd)" style="fill: none; stroke-dasharray: 0.5,0.825; stroke-dashoffset: 0; stroke: #808080; stroke-width: 0.5"/>
   </g>
   <g id="line2d_22">
    <path d="M 289.3824 142.696949 
L 209.5488 280.9728 
" clip-path="url(#p46e477bcbd)" style="fill: none; stroke-dasharray: 0.5,0.825; stroke-dashoffset: 0; stroke: #808080; stroke-width: 0.5"/>
   </g>
   <g id="line2d_23">
    <path d="M 182.9376 142.696949 
L 262.7712 280.9728 
" clip-path="url(#p46e477bcbd)" style="fill: none; stroke-dasharray: 0.5,0.825; stroke-dashoffset: 0; stroke: #808080; stroke-width: 0.5"/>
   </g>
   <g id="line2d_24">
    <path d="M 302.688 165.742924 
L 236.16 280.9728 
" clip-path="url(#p46e477bcbd)" style="fill: none; stroke-dasharray: 0.5,0.825; stroke-dashoffset: 0; stroke: #808080; stroke-width: 0.5"/>
   </g>
   <g id="line2d_25">
    <path d="M 169.632 165.742924 
L 236.16 280.9728 
" clip-path="url(#p46e477bcbd)" style="fill: none; stroke-dasharray: 0.5,0.825; stroke-dashoffset: 0; stroke: #808080; stroke-width: 0.5"/>
   </g>
   <g id="line2d_26">
    <path d="M 315.9936 188.788899 
L 262.7712 280.9728 
" clip-path="url(#p46e477bcbd)" style="fill: none; stroke-dasharray: 0.5,0.825; stroke-dashoffset: 0; stroke: #808080; stroke-width: 0.5"/>
   </g>
   <g id="line2d_27">
    <path d="M 156.3264 188.788899 
L 209.5488 280.9728 
" clip-path="url(#p46e477bcbd)" style="fill: none; stroke-dasharray: 0.5,0.825; stroke-dashoffset: 0; stroke: #808080; stroke-width: 0.5"/>
   </g>
   <g id="line2d_28">
    <path d="M 329.2992 211.834874 
L 289.3824 280.9728 
" clip-path="url(#p46e477bcbd)" style="fill: none; stroke-dasharray: 0.5,0.825; stroke-dashoffset: 0; stroke: #808080; stroke-width: 0.5"/>
   </g>
   <g id="line2d_29">
    <path d="M 143.0208 211.834874 
L 182.9376 280.9728 
" clip-path="url(#p46e477bcbd)" style="fill: none; stroke-dasharray: 0.5,0.825; stroke-dashoffset: 0; stroke: #808080; stroke-width: 0.5"/>
   </g>
   <g id="line2d_30">
    <path d="M 342.6048 234.88085 
L 315.9936 280.9728 
" clip-path="url(#p46e477bcbd)" style="fill: none; stroke-dasharray: 0.5,0.825; stroke-dashoffset: 0; stroke: #808080; stroke-width: 0.5"/>
   </g>
   <g id="line2d_31">
    <path d="M 129.7152 234.88085 
L 156.3264 280.9728 
" clip-path="url(#p46e477bcbd)" style="fill: none; stroke-dasharray: 0.5,0.825; stroke-dashoffset: 0; stroke: #808080; stroke-width: 0.5"/>
   </g>
   <g id="line2d_32">
    <path d="M 355.9104 257.926825 
L 342.6048 280.9728 
" clip-path="url(#p46e477bcbd)" style="fill: none; stroke-dasharray: 0.5,0.825; stroke-dashoffset: 0; stroke: #808080; stroke-width: 0.5"/>
   </g>
   <g id="line2d_33">
    <path d="M 116.4096 257.926825 
L 129.7152 280.9728 
" clip-path="url(#p46e477bcbd)" style="fill: none; stroke-dasharray: 0.5,0.825; stroke-dashoffset: 0; stroke: #808080; stroke-width: 0.5"/>
   </g>
   <g id="line2d_34">
    <path d="M 369.216 280.9728 
L 369.216 280.9728 
" clip-path="url(#p46e477bcbd)" style="fill: none; stroke-dasharray: 0.5,0.825; stroke-dashoffset: 0; stroke: #808080; stroke-width: 0.5"/>
   </g>
   <g id="line2d_35">
    <path d="M 103.104 280.9728 
L 103.104 280.9728 
" clip-path="url(#p46e477bcbd)" style="fill: none; stroke-dasharray: 0.5,0.825; stroke-dashoffset: 0; stroke: #808080; stroke-width: 0.5"/>
   </g>
   <g id="line2d_36">
    <path d="M 103.682126 280.9728 
L 120.959916 252.270167 
L 134.864858 229.883629 
L 147.678838 210.089994 
L 159.525825 192.786984 
L 170.529183 177.873933 
L 180.808944 165.259189 
L 190.487743 154.857042 
L 199.685452 146.589299 
L 208.53333 140.378823 
L 217.123093 136.151846 
L 225.454101 133.818994 
L 234.381334 133.475516 
L 246.153637 135.975797 
L 248.798284 136.738112 
L 253.454339 138.323399 
L 255.017787 139.100532 
L 255.244754 139.73697 
L 260.982981 143.098363 
L 272.451969 151.225964 
L 281.847984 159.320541 
L 291.564625 168.833942 
L 300.885717 179.040613 
L 309.859213 189.820944 
L 318.478208 201.030045 
L 326.694083 212.47258 
L 334.488544 223.978951 
L 341.861922 235.400813 
L 348.84502 246.63969 
L 355.500202 257.663709 
L 361.934524 268.540303 
L 369.216 280.9728 
" clip-path="url(#p46e477bcbd)" style="fill: none; stroke-dasharray: 1,1.65; stroke-dashoffset: 0; stroke: #000000"/>
   </g>
   <g id="line2d_37">
    <path d="M 103.682126 280.9728 
L 369.189602 280.9728 
" clip-path="url(#p46e477bcbd)" style="fill: none; stroke: #000000; stroke-width: 0.5; stroke-linecap: square"/>
    <defs>
     <path id="mc25c29eaf9" d="M 0 2 
C 0.530406 2 1.03916 1.789267 1.414214 1.414214 
C 1.789267 1.03916 2 0.530406 2 0 
C 2 -0.530406 1.789267 -1.03916 1.414214 -1.414214 
C 1.03916 -1.789267 0.530406 -2 0 -2 
C -0.530406 -2 -1.03916 -1.789267 -1.414214 -1.414214 
C -1.789267 -1.03916 -2 -0.530406 -2 0 
C -2 0.530406 -1.789267 1.03916 -1.414214 1.414214 
C -1.03916 1.789267 -0.530406 2 0 2 
z
" style="stroke: #000000"/>
    </defs>
    <g clip-path="url(#p46e477bcbd)">
     <use xlink:href="#mc25c29eaf9" x="103.682126" y="280.9728" style="stroke: #000000"/>
     <use xlink:href="#mc25c29eaf9" x="369.189602" y="280.9728" style="stroke: #000000"/>
    </g>
   </g>
   <g id="line2d_38">
    <path d="M 114.435006 263.015584 
L 364.748671 273.34638 
" clip-path="url(#p46e477bcbd)" style="fill: none; stroke: #000000; stroke-width: 0.5; stroke-linecap: square"/>
    <g clip-path="url(#p46e477bcbd)">
     <use xlink:href="#mc25c29eaf9" x="114.435006" y="263.015584" style="stroke: #000000"/>
     <use xlink:href="#mc25c29eaf9" x="364.748671" y="273.34638" style="stroke: #000000"/>
    </g>
   </g>
   <g id="line2d_39">
    <path d="M 125.058088 245.592596 
L 360.107119 265.433682 
" clip-path="url(#p46e477bcbd)" style="fill: none; stroke: #000000; stroke-width: 0.5; stroke-linecap: square"/>
    <g clip-path="url(#p46e477bcbd)">
     <use xlink:href="#mc25c29eaf9" x="125.058088" y="245.592596" style="stroke: #000000"/>
     <use xlink:href="#mc25c29eaf9" x="360.107119" y="265.433682" style="stroke: #000000"/>
    </g>
   </g>
   <g id="line2d_40">
    <path d="M 135.553785 228.796389 
L 355.162293 257.097792 
" clip-path="url(#p46e477bcbd)" style="fill: none; stroke: #000000; stroke-width: 0.5; stroke-linecap: square"/>
    <g clip-path="url(#p46e477bcbd)">
     <use xlink:href="#mc25c29eaf9" x="135.553785" y="228.796389" style="stroke: #000000"/>
     <use xlink:href="#mc25c29eaf9" x="355.162293" y="257.097792" style="stroke: #000000"/>
    </g>
   </g>
   <g id="line2d_41">
    <path d="M 145.949575 212.703293 
L 349.792618 248.192435 
" clip-path="url(#p46e477bcbd)" style="fill: none; stroke: #000000; stroke-width: 0.5; stroke-linecap: square"/>
    <g clip-path="url(#p46e477bcbd)">
     <use xlink:href="#mc25c29eaf9" x="145.949575" y="212.703293" style="stroke: #000000"/>
     <use xlink:href="#mc25c29eaf9" x="349.792618" y="248.192435" style="stroke: #000000"/>
    </g>
   </g>
   <g id="line2d_42">
    <path d="M 156.305856 197.376797 
L 343.850337 238.562352 
" clip-path="url(#p46e477bcbd)" style="fill: none; stroke: #000000; stroke-width: 0.5; stroke-linecap: square"/>
    <g clip-path="url(#p46e477bcbd)">
     <use xlink:href="#mc25c29eaf9" x="156.305856" y="197.376797" style="stroke: #000000"/>
     <use xlink:href="#mc25c29eaf9" x="343.850337" y="238.562352" style="stroke: #000000"/>
    </g>
   </g>
   <g id="line2d_43">
    <path d="M 166.727175 182.880003 
L 337.142652 228.033268 
" clip-path="url(#p46e477bcbd)" style="fill: none; stroke: #000000; stroke-width: 0.5; stroke-linecap: square"/>
    <g clip-path="url(#p46e477bcbd)">
     <use xlink:href="#mc25c29eaf9" x="166.727175" y="182.880003" style="stroke: #000000"/>
     <use xlink:href="#mc25c29eaf9" x="337.142652" y="228.033268" style="stroke: #000000"/>
    </g>
   </g>
   <g id="line2d_44">
    <path d="M 177.386025 169.297719 
L 329.39371 216.388183 
" clip-path="url(#p46e477bcbd)" style="fill: none; stroke: #000000; stroke-width: 0.5; stroke-linecap: square"/>
    <g clip-path="url(#p46e477bcbd)">
     <use xlink:href="#mc25c29eaf9" x="177.386025" y="169.297719" style="stroke: #000000"/>
     <use xlink:href="#mc25c29eaf9" x="329.39371" y="216.388183" style="stroke: #000000"/>
    </g>
   </g>
   <g id="line2d_45">
    <path d="M 188.5827 156.776357 
L 320.165092 203.319986 
" clip-path="url(#p46e477bcbd)" style="fill: none; stroke: #000000; stroke-width: 0.5; stroke-linecap: square"/>
    <g clip-path="url(#p46e477bcbd)">
     <use xlink:href="#mc25c29eaf9" x="188.5827" y="156.776357" style="stroke: #000000"/>
     <use xlink:href="#mc25c29eaf9" x="320.165092" y="203.319986" style="stroke: #000000"/>
    </g>
   </g>
   <g id="line2d_46">
    <path d="M 200.918096 145.618994 
L 308.656001 188.321734 
" clip-path="url(#p46e477bcbd)" style="fill: none; stroke: #000000; stroke-width: 0.5; stroke-linecap: square"/>
    <g clip-path="url(#p46e477bcbd)">
     <use xlink:href="#mc25c29eaf9" x="200.918096" y="145.618994" style="stroke: #000000"/>
     <use xlink:href="#mc25c29eaf9" x="308.656001" y="188.321734" style="stroke: #000000"/>
    </g>
   </g>
   <g id="line2d_47">
    <path d="M 215.979782 136.639199 
L 292.978039 170.309046 
" clip-path="url(#p46e477bcbd)" style="fill: none; stroke: #000000; stroke-width: 0.5; stroke-linecap: square"/>
    <g clip-path="url(#p46e477bcbd)">
     <use xlink:href="#mc25c29eaf9" x="215.979782" y="136.639199" style="stroke: #000000"/>
     <use xlink:href="#mc25c29eaf9" x="292.978039" y="170.309046" style="stroke: #000000"/>
    </g>
   </g>
   <g id="line2d_48">
    <path d="M 103.104 280.9728 
L 103.104 280.9728 
" clip-path="url(#p46e477bcbd)" style="fill: none; stroke: #000000; stroke-width: 0.5; stroke-linecap: square"/>
    <g clip-path="url(#p46e477bcbd)">
     <use xlink:href="#mc25c29eaf9" x="103.104" y="280.9728" style="stroke: #000000"/>
     <use xlink:href="#mc25c29eaf9" x="103.104" y="280.9728" style="stroke: #000000"/>
    </g>
   </g>
   <g id="line2d_49">
    <path d="M 369.216 280.9728 
L 375.8688 280.9728 
" clip-path="url(#p46e477bcbd)" style="fill: none; stroke: #000000; stroke-linecap: square"/>
   </g>
   <g id="line2d_50">
    <path d="M 342.6048 234.88085 
L 349.2576 234.88085 
" clip-path="url(#p46e477bcbd)" style="fill: none; stroke: #000000; stroke-linecap: square"/>
   </g>
   <g id="line2d_51">
    <path d="M 315.9936 188.788899 
L 322.6464 188.788899 
" clip-path="url(#p46e477bcbd)" style="fill: none; stroke: #000000; stroke-linecap: square"/>
   </g>
   <g id="line2d_52">
    <path d="M 289.3824 142.696949 
L 296.0352 142.696949 
" clip-path="url(#p46e477bcbd)" style="fill: none; stroke: #000000; stroke-linecap: square"/>
   </g>
   <g id="line2d_53">
    <path d="M 262.7712 96.604998 
L 269.424 96.604998 
" clip-path="url(#p46e477bcbd)" style="fill: none; stroke: #000000; stroke-linecap: square"/>
   </g>
   <g id="line2d_54">
    <path d="M 236.16 50.513048 
L 242.8128 50.513048 
" clip-path="url(#p46e477bcbd)" style="fill: none; stroke: #000000; stroke-linecap: square"/>
   </g>
   <g id="line2d_55">
    <path d="M 103.104 280.9728 
L 99.7776 275.211306 
" clip-path="url(#p46e477bcbd)" style="fill: none; stroke: #000000; stroke-linecap: square"/>
   </g>
   <g id="line2d_56">
    <path d="M 129.7152 234.88085 
L 126.3888 229.119356 
" clip-path="url(#p46e477bcbd)" style="fill: none; stroke: #000000; stroke-linecap: square"/>
   </g>
   <g id="line2d_57">
    <path d="M 156.3264 188.788899 
L 153 183.027405 
" clip-path="url(#p46e477bcbd)" style="fill: none; stroke: #000000; stroke-linecap: square"/>
   </g>
   <g id="line2d_58">
    <path d="M 182.9376 142.696949 
L 179.6112 136.935455 
" clip-path="url(#p46e477bcbd)" style="fill: none; stroke: #000000; stroke-linecap: square"/>
   </g>
   <g id="line2d_59">
    <path d="M 209.5488 96.604998 
L 206.2224 90.843504 
" clip-path="url(#p46e477bcbd)" style="fill: none; stroke: #000000; stroke-linecap: square"/>
   </g>
   <g id="line2d_60">
    <path d="M 236.16 50.513048 
L 232.8336 44.751554 
" clip-path="url(#p46e477bcbd)" style="fill: none; stroke: #000000; stroke-linecap: square"/>
   </g>
   <g id="line2d_61">
    <path d="M 103.104 280.9728 
L 99.7776 286.734294 
" clip-path="url(#p46e477bcbd)" style="fill: none; stroke: #000000; stroke-linecap: square"/>
   </g>
   <g id="line2d_62">
    <path d="M 156.3264 280.9728 
L 153 286.734294 
" clip-path="url(#p46e477bcbd)" style="fill: none; stroke: #000000; stroke-linecap: square"/>
   </g>
   <g id="line2d_63">
    <path d="M 209.5488 280.9728 
L 206.2224 286.734294 
" clip-path="url(#p46e477bcbd)" style="fill: none; stroke: #000000; stroke-linecap: square"/>
   </g>
   <g id="line2d_64">
    <path d="M 262.7712 280.9728 
L 259.4448 286.734294 
" clip-path="url(#p46e477bcbd)" style="fill: none; stroke: #000000; stroke-linecap: square"/>
   </g>
   <g id="line2d_65">
    <path d="M 315.9936 280.9728 
L 312.6672 286.734294 
" clip-path="url(#p46e477bcbd)" style="fill: none; stroke: #000000; stroke-linecap: square"/>
   </g>
   <g id="line2d_66">
    <path d="M 369.216 280.9728 
L 365.8896 286.734294 
" clip-path="url(#p46e477bcbd)" style="fill: none; stroke: #000000; stroke-linecap: square"/>
   </g>
   <g id="text_1">
    <!-- 0.0 -->
    <g transform="translate(380.224918 283.853547) scale(0.1 -0.1)">
     <defs>
      <path id="DejaVuSans-30" d="M 2034 4250 
Q 1547 4250 1301 3770 
Q 1056 3291 1056 2328 
Q 1056 1369 1301 889 
Q 1547 409 2034 409 
Q 2525 409 2770 889 
Q 3016 1369 3016 2328 
Q 3016 3291 2770 3770 
Q 2525 4250 2034 4250 
z
M 2034 4750 
Q 2819 4750 3233 4129 
Q 3647 3509 3647 2328 
Q 3647 1150 3233 529 
Q 2819 -91 2034 -91 
Q 1250 -91 836 529 
Q 422 1150 422 2328 
Q 422 3509 836 4129 
Q 1250 4750 2034 4750 
z
" transform="scale(0.015625)"/>
      <path id="DejaVuSans-2e" d="M 684 794 
L 1344 794 
L 1344 0 
L 684 0 
L 684 794 
z
" transform="scale(0.015625)"/>
     </defs>
     <use xlink:href="#DejaVuSans-30"/>
     <use xlink:href="#DejaVuSans-2e" x="63.623047"/>
     <use xlink:href="#DejaVuSans-30" x="95.410156"/>
    </g>
   </g>
   <g id="text_2">
    <!-- 0.2 -->
    <g transform="translate(353.613718 237.761596) scale(0.1 -0.1)">
     <defs>
      <path id="DejaVuSans-32" d="M 1228 531 
L 3431 531 
L 3431 0 
L 469 0 
L 469 531 
Q 828 903 1448 1529 
Q 2069 2156 2228 2338 
Q 2531 2678 2651 2914 
Q 2772 3150 2772 3378 
Q 2772 3750 2511 3984 
Q 2250 4219 1831 4219 
Q 1534 4219 1204 4116 
Q 875 4013 500 3803 
L 500 4441 
Q 881 4594 1212 4672 
Q 1544 4750 1819 4750 
Q 2544 4750 2975 4387 
Q 3406 4025 3406 3419 
Q 3406 3131 3298 2873 
Q 3191 2616 2906 2266 
Q 2828 2175 2409 1742 
Q 1991 1309 1228 531 
z
" transform="scale(0.015625)"/>
     </defs>
     <use xlink:href="#DejaVuSans-30"/>
     <use xlink:href="#DejaVuSans-2e" x="63.623047"/>
     <use xlink:href="#DejaVuSans-32" x="95.410156"/>
    </g>
   </g>
   <g id="text_3">
    <!-- 0.4 -->
    <g transform="translate(327.002518 191.669646) scale(0.1 -0.1)">
     <defs>
      <path id="DejaVuSans-34" d="M 2419 4116 
L 825 1625 
L 2419 1625 
L 2419 4116 
z
M 2253 4666 
L 3047 4666 
L 3047 1625 
L 3713 1625 
L 3713 1100 
L 3047 1100 
L 3047 0 
L 2419 0 
L 2419 1100 
L 313 1100 
L 313 1709 
L 2253 4666 
z
" transform="scale(0.015625)"/>
     </defs>
     <use xlink:href="#DejaVuSans-30"/>
     <use xlink:href="#DejaVuSans-2e" x="63.623047"/>
     <use xlink:href="#DejaVuSans-34" x="95.410156"/>
    </g>
   </g>
   <g id="text_4">
    <!-- 0.6 -->
    <g transform="translate(300.391318 145.577696) scale(0.1 -0.1)">
     <defs>
      <path id="DejaVuSans-36" d="M 2113 2584 
Q 1688 2584 1439 2293 
Q 1191 2003 1191 1497 
Q 1191 994 1439 701 
Q 1688 409 2113 409 
Q 2538 409 2786 701 
Q 3034 994 3034 1497 
Q 3034 2003 2786 2293 
Q 2538 2584 2113 2584 
z
M 3366 4563 
L 3366 3988 
Q 3128 4100 2886 4159 
Q 2644 4219 2406 4219 
Q 1781 4219 1451 3797 
Q 1122 3375 1075 2522 
Q 1259 2794 1537 2939 
Q 1816 3084 2150 3084 
Q 2853 3084 3261 2657 
Q 3669 2231 3669 1497 
Q 3669 778 3244 343 
Q 2819 -91 2113 -91 
Q 1303 -91 875 529 
Q 447 1150 447 2328 
Q 447 3434 972 4092 
Q 1497 4750 2381 4750 
Q 2619 4750 2861 4703 
Q 3103 4656 3366 4563 
z
" transform="scale(0.015625)"/>
     </defs>
     <use xlink:href="#DejaVuSans-30"/>
     <use xlink:href="#DejaVuSans-2e" x="63.623047"/>
     <use xlink:href="#DejaVuSans-36" x="95.410156"/>
    </g>
   </g>
   <g id="text_5">
    <!-- 0.8 -->
    <g transform="translate(273.780118 99.485745) scale(0.1 -0.1)">
     <defs>
      <path id="DejaVuSans-38" d="M 2034 2216 
Q 1584 2216 1326 1975 
Q 1069 1734 1069 1313 
Q 1069 891 1326 650 
Q 1584 409 2034 409 
Q 2484 409 2743 651 
Q 3003 894 3003 1313 
Q 3003 1734 2745 1975 
Q 2488 2216 2034 2216 
z
M 1403 2484 
Q 997 2584 770 2862 
Q 544 3141 544 3541 
Q 544 4100 942 4425 
Q 1341 4750 2034 4750 
Q 2731 4750 3128 4425 
Q 3525 4100 3525 3541 
Q 3525 3141 3298 2862 
Q 3072 2584 2669 2484 
Q 3125 2378 3379 2068 
Q 3634 1759 3634 1313 
Q 3634 634 3220 271 
Q 2806 -91 2034 -91 
Q 1263 -91 848 271 
Q 434 634 434 1313 
Q 434 1759 690 2068 
Q 947 2378 1403 2484 
z
M 1172 3481 
Q 1172 3119 1398 2916 
Q 1625 2713 2034 2713 
Q 2441 2713 2670 2916 
Q 2900 3119 2900 3481 
Q 2900 3844 2670 4047 
Q 2441 4250 2034 4250 
Q 1625 4250 1398 4047 
Q 1172 3844 1172 3481 
z
" transform="scale(0.015625)"/>
     </defs>
     <use xlink:href="#DejaVuSans-30"/>
     <use xlink:href="#DejaVuSans-2e" x="63.623047"/>
     <use xlink:href="#DejaVuSans-38" x="95.410156"/>
    </g>
   </g>
   <g id="text_6">
    <!-- 1.0 -->
    <g transform="translate(247.168918 53.393795) scale(0.1 -0.1)">
     <defs>
      <path id="DejaVuSans-31" d="M 794 531 
L 1825 531 
L 1825 4091 
L 703 3866 
L 703 4441 
L 1819 4666 
L 2450 4666 
L 2450 531 
L 3481 531 
L 3481 0 
L 794 0 
L 794 531 
z
" transform="scale(0.015625)"/>
     </defs>
     <use xlink:href="#DejaVuSans-31"/>
     <use xlink:href="#DejaVuSans-2e" x="63.623047"/>
     <use xlink:href="#DejaVuSans-30" x="95.410156"/>
    </g>
   </g>
   <g id="text_7">
    <!-- 1.0 -->
    <g transform="translate(86.836438 272.330559) scale(0.1 -0.1)">
     <use xlink:href="#DejaVuSans-31"/>
     <use xlink:href="#DejaVuSans-2e" x="63.623047"/>
     <use xlink:href="#DejaVuSans-30" x="95.410156"/>
    </g>
   </g>
   <g id="text_8">
    <!-- 0.8 -->
    <g transform="translate(113.447638 226.238609) scale(0.1 -0.1)">
     <use xlink:href="#DejaVuSans-30"/>
     <use xlink:href="#DejaVuSans-2e" x="63.623047"/>
     <use xlink:href="#DejaVuSans-38" x="95.410156"/>
    </g>
   </g>
   <g id="text_9">
    <!-- 0.6 -->
    <g transform="translate(140.058838 180.146658) scale(0.1 -0.1)">
     <use xlink:href="#DejaVuSans-30"/>
     <use xlink:href="#DejaVuSans-2e" x="63.623047"/>
     <use xlink:href="#DejaVuSans-36" x="95.410156"/>
    </g>
   </g>
   <g id="text_10">
    <!-- 0.4 -->
    <g transform="translate(166.670038 134.054708) scale(0.1 -0.1)">
     <use xlink:href="#DejaVuSans-30"/>
     <use xlink:href="#DejaVuSans-2e" x="63.623047"/>
     <use xlink:href="#DejaVuSans-34" x="95.410156"/>
    </g>
   </g>
   <g id="text_11">
    <!-- 0.2 -->
    <g transform="translate(193.281238 87.962757) scale(0.1 -0.1)">
     <use xlink:href="#DejaVuSans-30"/>
     <use xlink:href="#DejaVuSans-2e" x="63.623047"/>
     <use xlink:href="#DejaVuSans-32" x="95.410156"/>
    </g>
   </g>
   <g id="text_12">
    <!-- 0.0 -->
    <g transform="translate(219.892438 41.870807) scale(0.1 -0.1)">
     <use xlink:href="#DejaVuSans-30"/>
     <use xlink:href="#DejaVuSans-2e" x="63.623047"/>
     <use xlink:href="#DejaVuSans-30" x="95.410156"/>
    </g>
   </g>
   <g id="text_13">
    <!-- 0.0 -->
    <g transform="translate(86.836438 301.138028) scale(0.1 -0.1)">
     <use xlink:href="#DejaVuSans-30"/>
     <use xlink:href="#DejaVuSans-2e" x="63.623047"/>
     <use xlink:href="#DejaVuSans-30" x="95.410156"/>
    </g>
   </g>
   <g id="text_14">
    <!-- 0.2 -->
    <g transform="translate(140.058838 301.138028) scale(0.1 -0.1)">
     <use xlink:href="#DejaVuSans-30"/>
     <use xlink:href="#DejaVuSans-2e" x="63.623047"/>
     <use xlink:href="#DejaVuSans-32" x="95.410156"/>
    </g>
   </g>
   <g id="text_15">
    <!-- 0.4 -->
    <g transform="translate(193.281238 301.138028) scale(0.1 -0.1)">
     <use xlink:href="#DejaVuSans-30"/>
     <use xlink:href="#DejaVuSans-2e" x="63.623047"/>
     <use xlink:href="#DejaVuSans-34" x="95.410156"/>
    </g>
   </g>
   <g id="text_16">
    <!-- 0.6 -->
    <g transform="translate(246.503638 301.138028) scale(0.1 -0.1)">
     <use xlink:href="#DejaVuSans-30"/>
     <use xlink:href="#DejaVuSans-2e" x="63.623047"/>
     <use xlink:href="#DejaVuSans-36" x="95.410156"/>
    </g>
   </g>
   <g id="text_17">
    <!-- 0.8 -->
    <g transform="translate(299.726038 301.138028) scale(0.1 -0.1)">
     <use xlink:href="#DejaVuSans-30"/>
     <use xlink:href="#DejaVuSans-2e" x="63.623047"/>
     <use xlink:href="#DejaVuSans-38" x="95.410156"/>
    </g>
   </g>
   <g id="text_18">
    <!-- 1.0 -->
    <g transform="translate(352.948438 301.138028) scale(0.1 -0.1)">
     <use xlink:href="#DejaVuSans-31"/>
     <use xlink:href="#DejaVuSans-2e" x="63.623047"/>
     <use xlink:href="#DejaVuSans-30" x="95.410156"/>
    </g>
   </g>
   <g id="text_19">
    <!-- H2O -->
    <g transform="translate(224.194922 26.423102) scale(0.11 -0.11)">
     <defs>
      <path id="DejaVuSans-48" d="M 628 4666 
L 1259 4666 
L 1259 2753 
L 3553 2753 
L 3553 4666 
L 4184 4666 
L 4184 0 
L 3553 0 
L 3553 2222 
L 1259 2222 
L 1259 0 
L 628 0 
L 628 4666 
z
" transform="scale(0.015625)"/>
      <path id="DejaVuSans-4f" d="M 2522 4238 
Q 1834 4238 1429 3725 
Q 1025 3213 1025 2328 
Q 1025 1447 1429 934 
Q 1834 422 2522 422 
Q 3209 422 3611 934 
Q 4013 1447 4013 2328 
Q 4013 3213 3611 3725 
Q 3209 4238 2522 4238 
z
M 2522 4750 
Q 3503 4750 4090 4092 
Q 4678 3434 4678 2328 
Q 4678 1225 4090 567 
Q 3503 -91 2522 -91 
Q 1538 -91 948 565 
Q 359 1222 359 2328 
Q 359 3434 948 4092 
Q 1538 4750 2522 4750 
z
" transform="scale(0.015625)"/>
     </defs>
     <use xlink:href="#DejaVuSans-48"/>
     <use xlink:href="#DejaVuSans-32" x="75.195312"/>
     <use xlink:href="#DejaVuSans-4f" x="138.818359"/>
    </g>
   </g>
   <g id="text_20">
    <!-- ACE -->
    <g transform="translate(62.716671 282.233427) scale(0.11 -0.11)">
     <defs>
      <path id="DejaVuSans-41" d="M 2188 4044 
L 1331 1722 
L 3047 1722 
L 2188 4044 
z
M 1831 4666 
L 2547 4666 
L 4325 0 
L 3669 0 
L 3244 1197 
L 1141 1197 
L 716 0 
L 50 0 
L 1831 4666 
z
" transform="scale(0.015625)"/>
      <path id="DejaVuSans-43" d="M 4122 4306 
L 4122 3641 
Q 3803 3938 3442 4084 
Q 3081 4231 2675 4231 
Q 1875 4231 1450 3742 
Q 1025 3253 1025 2328 
Q 1025 1406 1450 917 
Q 1875 428 2675 428 
Q 3081 428 3442 575 
Q 3803 722 4122 1019 
L 4122 359 
Q 3791 134 3420 21 
Q 3050 -91 2638 -91 
Q 1578 -91 968 557 
Q 359 1206 359 2328 
Q 359 3453 968 4101 
Q 1578 4750 2638 4750 
Q 3056 4750 3426 4639 
Q 3797 4528 4122 4306 
z
" transform="scale(0.015625)"/>
      <path id="DejaVuSans-45" d="M 628 4666 
L 3578 4666 
L 3578 4134 
L 1259 4134 
L 1259 2753 
L 3481 2753 
L 3481 2222 
L 1259 2222 
L 1259 531 
L 3634 531 
L 3634 0 
L 628 0 
L 628 4666 
z
" transform="scale(0.015625)"/>
     </defs>
     <use xlink:href="#DejaVuSans-41"/>
     <use xlink:href="#DejaVuSans-43" x="66.658203"/>
     <use xlink:href="#DejaVuSans-45" x="136.482422"/>
    </g>
   </g>
   <g id="text_21">
    <!-- TOL -->
    <g transform="translate(377.622705 298.36561) scale(0.11 -0.11)">
     <defs>
      <path id="DejaVuSans-54" d="M -19 4666 
L 3928 4666 
L 3928 4134 
L 2272 4134 
L 2272 0 
L 1638 0 
L 1638 4134 
L -19 4134 
L -19 4666 
z
" transform="scale(0.015625)"/>
      <path id="DejaVuSans-4c" d="M 628 4666 
L 1259 4666 
L 1259 531 
L 3531 531 
L 3531 0 
L 628 0 
L 628 4666 
z
" transform="scale(0.015625)"/>
     </defs>
     <use xlink:href="#DejaVuSans-54"/>
     <use xlink:href="#DejaVuSans-4f" x="61.083984"/>
     <use xlink:href="#DejaVuSans-4c" x="139.794922"/>
    </g>
   </g>
  </g>
 </g>
 <defs>
  <clipPath id="p46e477bcbd">
   <rect x="89.7984" y="41.472" width="292.7232" height="266.112"/>
  </clipPath>
 </defs>
</svg>
